<svg width="23" height="21" viewBox="0 0 23 21" fill="none" xmlns="http://www.w3.org/2000/svg">
<path d="M3.59375 6.23438V16.7344C3.59517 17.1691 3.78494 17.5856 4.12161 17.893C4.45828 18.2004 4.9145 18.3737 5.39062 18.375H17.6094C18.0855 18.3737 18.5417 18.2004 18.8784 17.893C19.2151 17.5856 19.4048 17.1691 19.4062 16.7344V6.23438" stroke="black" stroke-linecap="round" stroke-linejoin="round"/>
<path d="M19.5859 2.625H3.41406C2.71939 2.625 2.15625 3.13917 2.15625 3.77344V4.75781C2.15625 5.39208 2.71939 5.90625 3.41406 5.90625H19.5859C20.2806 5.90625 20.8438 5.39208 20.8438 4.75781V3.77344C20.8438 3.13917 20.2806 2.625 19.5859 2.625Z" stroke="black" stroke-linejoin="round"/>
<path d="M14.375 12.4688L11.5 15.0938L8.625 12.4688" stroke="black" stroke-linecap="round" stroke-linejoin="round"/>
<path d="M11.5 14.1869V9.1875" stroke="black" stroke-linecap="round" stroke-linejoin="round"/>
</svg>
